-
http:// www. Speed. Cd       
http:// www. Speed. Cd       the fast  and The Hottest Private Tracker on the net

Please Seed back to make the speed Faster!!!

and don't forget to visit      ...... www. Speed. Cd..........
-                                             
                               
                                 
                                      
                                      
                                       
    CoaX!<CPH>                         
                               
                         
                            
          
    Team FiCO <Final Coalition> 2k8 Presents:    
    

Metallica.A.Year.and.a.Half.in.the.Life.of.Metallica.1992.Part2.DVDRip.XviD-FiCO 
http://www.imdb.com/title/tt0181173/
Subtitles: None
Date: 2011.03

Director: Adam Dubin
Genre: Docu
Plot: Step into the recording studio as heavy metal supergroup Metallica 
crafts its Grammy-winning "Black Album" -- a classic that went on to sell 
more than 10 million copies. The four-hour documentary from director Adam 
Dubin features exclusive interviews, behind-the-scenes access to the group's 
1991-92 "Wherever I May Roam" tour, and videos for hits such as "Enter 
Sandman," "The Unforgiven" and "Nothing Else Matters."

Cast
Credited cast:
Metallica 	Metallica 	... 	
Themselves
Rest of cast listed alphabetically:
Christopher Guest 	Christopher Guest 	... 	
Nigel Tufnel
Kirk Hammett 	Kirk Hammett 	... 	
Himself - Guitarist
James Hetfield 	James Hetfield 	... 	
Himself - Guitarist & Vocalist
Michael McKean 	Michael McKean 	... 	
David St. Hubbins
Jason Newsted 	Jason Newsted 	... 	
Himself - Bassist
Bob Rock 	Bob Rock 	... 	
Himself
Harry Shearer 	Harry Shearer 	... 	
Derek Smalls
Lars Ulrich 	Lars Ulrich 	... 	
Himself - Drummer
Full cast and crew  

Stats:
General
Format                           : AVI
Format/Info                      : Audio Video Interleave
File size                        : 1.36 GiB
Duration                         : 2h 13mn
Overall bit rate                 : 1 461 Kbps
Writing application              : VirtualDubMod 1.5.10.2 (build 2542/release)
Writing library                  : VirtualDubMod build 2542/release

Video
ID                               : 0
Format                           : MPEG-4 Visual
Format profile                   : Advanced Simple@L5
Format settings, BVOP            : Yes
Format settings, QPel            : No
Format settings, GMC             : No warppoints
Format settings, Matrix          : Default (H.263)
Codec ID                         : XVID
Codec ID/Hint                    : XviD
Duration                         : 2h 13mn
Bit rate                         : 1 316 Kbps
Width                            : 576 pixels
Height                           : 432 pixels
Display aspect ratio             : 4:3
Frame rate                       : 29.970 fps
Resolution                       : 8 bits
Colorimetry                      : 4:2:0
Scan type                        : Progressive
Bits/(Pixel*Frame)               : 0.177
Stream size                      : 1.22 GiB (90%)
Writing library                  : XviD 61

Audio
ID                               : 1
Format                           : MPEG Audio
Format version                   : Version 1
Format profile                   : Layer 3
Mode                             : Joint stereo
Codec ID                         : 55
Codec ID/Hint                    : MP3
Duration                         : 2h 13mn
Bit rate mode                    : Variable
Bit rate                         : 131 Kbps
Minimum bit rate                 : 32.0 Kbps
Channel(s)                       : 2 channels
Sampling rate                    : 48.0 KHz
Stream size                      : 125 MiB (9%)
Alignment                        : Aligned on interleaves
Interleave, duration             : 24 ms (0.72 video frame)
Interleave, preload duration     : 316 ms
Writing library                  : LAME3.98r
Encoding settings                : -m j -V 4 -q 0 -lowpass 17.5 --vbr-new -b 32






Release notes:
enjoy!


                                                                     
                                                             
                                                               
                                                               
                       
      
              Greetz from Team FiCO:               
              
                                                             
                                                             
           BLooDWeiSeR,CULTXviD,SiCK,DoNE,LAP,TH30R1STS              
                                                                             
               WinBeta, DvF, WASTE, BERC, KALEVALA, Jiggly                   
                                                                             
                                                             
                                       
                             
                      
                  
           
            
                    
                  
                
                            
                                        
                                        
                                            
                                                    
                                                              
                      you know where to find us...                     
                        
   NFO By: CoaXCable/CoolPHat <#CPH>